<mxfile host="Electron" modified="2023-11-22T08:58:55.180Z" agent="Mozilla/5.0 (Windows NT 10.0; Win64; x64) AppleWebKit/537.36 (KHTML, like Gecko) draw.io/22.0.2 Chrome/114.0.5735.289 Electron/25.8.4 Safari/537.36" etag="LN5BQL_4ZY3Ue66L--Vm" version="22.0.2" type="device">
  <diagram name="Page-1" id="97916047-d0de-89f5-080d-49f4d83e522f">
    <mxGraphModel dx="3171.5" dy="868" grid="1" gridSize="10" guides="1" tooltips="1" connect="1" arrows="1" fold="1" page="1" pageScale="1.5" pageWidth="1169" pageHeight="827" background="none" math="0" shadow="0">
      <root>
        <mxCell id="0" />
        <mxCell id="1" parent="0" />
        <mxCell id="gpzR5CBWOuM9B5lPcLhK-56" value="Fesztivál_I5XJTC" style="ellipse;whiteSpace=wrap;html=1;" parent="1" vertex="1">
          <mxGeometry x="817" y="30" width="120" height="80" as="geometry" />
        </mxCell>
        <mxCell id="gpzR5CBWOuM9B5lPcLhK-57" value="Résztvevő" style="ellipse;whiteSpace=wrap;html=1;" parent="1" vertex="1">
          <mxGeometry x="23" y="155" width="120" height="80" as="geometry" />
        </mxCell>
        <mxCell id="gpzR5CBWOuM9B5lPcLhK-58" value="Bár" style="ellipse;whiteSpace=wrap;html=1;" parent="1" vertex="1">
          <mxGeometry x="1273" y="155" width="120" height="80" as="geometry" />
        </mxCell>
        <mxCell id="gpzR5CBWOuM9B5lPcLhK-59" value="Tulajdonos" style="ellipse;whiteSpace=wrap;html=1;" parent="1" vertex="1">
          <mxGeometry x="-337" y="155" width="120" height="80" as="geometry" />
        </mxCell>
        <mxCell id="gpzR5CBWOuM9B5lPcLhK-60" value="Fellépő" style="ellipse;whiteSpace=wrap;html=1;" parent="1" vertex="1">
          <mxGeometry x="1780" y="155" width="120" height="80" as="geometry" />
        </mxCell>
        <mxCell id="gpzR5CBWOuM9B5lPcLhK-62" value="" style="endArrow=none;html=1;rounded=0;entryX=0.971;entryY=0.713;entryDx=0;entryDy=0;exitX=0;exitY=0;exitDx=0;exitDy=0;entryPerimeter=0;" parent="1" source="gpzR5CBWOuM9B5lPcLhK-58" target="gpzR5CBWOuM9B5lPcLhK-56" edge="1">
          <mxGeometry width="50" height="50" relative="1" as="geometry">
            <mxPoint x="867" y="570" as="sourcePoint" />
            <mxPoint x="917" y="520" as="targetPoint" />
          </mxGeometry>
        </mxCell>
        <mxCell id="gpzR5CBWOuM9B5lPcLhK-63" value="" style="endArrow=none;html=1;rounded=0;entryX=0;entryY=0.5;entryDx=0;entryDy=0;exitX=0.5;exitY=0;exitDx=0;exitDy=0;" parent="1" source="gpzR5CBWOuM9B5lPcLhK-57" target="gpzR5CBWOuM9B5lPcLhK-56" edge="1">
          <mxGeometry width="50" height="50" relative="1" as="geometry">
            <mxPoint x="867" y="570" as="sourcePoint" />
            <mxPoint x="917" y="520" as="targetPoint" />
          </mxGeometry>
        </mxCell>
        <mxCell id="gpzR5CBWOuM9B5lPcLhK-64" value="" style="endArrow=none;html=1;rounded=0;entryX=0.996;entryY=0.325;entryDx=0;entryDy=0;exitX=0;exitY=0;exitDx=0;exitDy=0;entryPerimeter=0;" parent="1" source="gpzR5CBWOuM9B5lPcLhK-60" target="gpzR5CBWOuM9B5lPcLhK-56" edge="1">
          <mxGeometry width="50" height="50" relative="1" as="geometry">
            <mxPoint x="867" y="570" as="sourcePoint" />
            <mxPoint x="917" y="520" as="targetPoint" />
          </mxGeometry>
        </mxCell>
        <mxCell id="gpzR5CBWOuM9B5lPcLhK-65" value="" style="endArrow=none;html=1;rounded=0;entryX=0.029;entryY=0.35;entryDx=0;entryDy=0;exitX=0.5;exitY=0;exitDx=0;exitDy=0;entryPerimeter=0;" parent="1" source="gpzR5CBWOuM9B5lPcLhK-59" target="gpzR5CBWOuM9B5lPcLhK-56" edge="1">
          <mxGeometry width="50" height="50" relative="1" as="geometry">
            <mxPoint x="-235.57359312880726" y="166.7157287525381" as="sourcePoint" />
            <mxPoint x="816" y="70" as="targetPoint" />
          </mxGeometry>
        </mxCell>
        <mxCell id="gpzR5CBWOuM9B5lPcLhK-67" value="név" style="ellipse;whiteSpace=wrap;html=1;" parent="1" vertex="1">
          <mxGeometry x="1486" y="256" width="80" height="60" as="geometry" />
        </mxCell>
        <mxCell id="gpzR5CBWOuM9B5lPcLhK-69" value="helyszín" style="ellipse;whiteSpace=wrap;html=1;" parent="1" vertex="1">
          <mxGeometry x="1573" y="256" width="80" height="60" as="geometry" />
        </mxCell>
        <mxCell id="gpzR5CBWOuM9B5lPcLhK-70" value="év" style="ellipse;whiteSpace=wrap;html=1;" parent="1" vertex="1">
          <mxGeometry x="1673" y="256" width="80" height="60" as="geometry" />
        </mxCell>
        <mxCell id="gpzR5CBWOuM9B5lPcLhK-74" value="" style="endArrow=none;html=1;rounded=0;exitX=0.5;exitY=0;exitDx=0;exitDy=0;entryX=1;entryY=1;entryDx=0;entryDy=0;" parent="1" source="eGRWjD5pN5fuBiRvpTxn-2" target="eGRWjD5pN5fuBiRvpTxn-11" edge="1">
          <mxGeometry width="50" height="50" relative="1" as="geometry">
            <mxPoint x="1079.04" y="4" as="sourcePoint" />
            <mxPoint x="1430" y="585" as="targetPoint" />
          </mxGeometry>
        </mxCell>
        <mxCell id="gpzR5CBWOuM9B5lPcLhK-75" value="" style="endArrow=none;html=1;rounded=0;entryX=0;entryY=1;entryDx=0;entryDy=0;exitX=0.713;exitY=0.017;exitDx=0;exitDy=0;exitPerimeter=0;" parent="1" source="gpzR5CBWOuM9B5lPcLhK-67" target="eGRWjD5pN5fuBiRvpTxn-11" edge="1">
          <mxGeometry width="50" height="50" relative="1" as="geometry">
            <mxPoint x="1528" y="-25" as="sourcePoint" />
            <mxPoint x="1578" y="-75" as="targetPoint" />
          </mxGeometry>
        </mxCell>
        <mxCell id="gpzR5CBWOuM9B5lPcLhK-76" value="" style="endArrow=none;html=1;rounded=0;entryX=0.5;entryY=1;entryDx=0;entryDy=0;exitX=0.5;exitY=0;exitDx=0;exitDy=0;" parent="1" source="gpzR5CBWOuM9B5lPcLhK-69" target="eGRWjD5pN5fuBiRvpTxn-11" edge="1">
          <mxGeometry width="50" height="50" relative="1" as="geometry">
            <mxPoint x="1528" y="-25" as="sourcePoint" />
            <mxPoint x="1578" y="-75" as="targetPoint" />
          </mxGeometry>
        </mxCell>
        <mxCell id="gpzR5CBWOuM9B5lPcLhK-77" value="" style="endArrow=none;html=1;rounded=0;entryX=0.958;entryY=0.775;entryDx=0;entryDy=0;exitX=0.238;exitY=0.117;exitDx=0;exitDy=0;exitPerimeter=0;entryPerimeter=0;" parent="1" source="gpzR5CBWOuM9B5lPcLhK-70" target="eGRWjD5pN5fuBiRvpTxn-11" edge="1">
          <mxGeometry width="50" height="50" relative="1" as="geometry">
            <mxPoint x="1528" y="-25" as="sourcePoint" />
            <mxPoint x="1578" y="-75" as="targetPoint" />
          </mxGeometry>
        </mxCell>
        <mxCell id="gpzR5CBWOuM9B5lPcLhK-82" value="" style="endArrow=none;html=1;rounded=0;entryX=0.5;entryY=1;entryDx=0;entryDy=0;exitX=0.5;exitY=0;exitDx=0;exitDy=0;" parent="1" source="eGRWjD5pN5fuBiRvpTxn-88" target="gpzR5CBWOuM9B5lPcLhK-67" edge="1">
          <mxGeometry width="50" height="50" relative="1" as="geometry">
            <mxPoint x="1425" y="349" as="sourcePoint" />
            <mxPoint x="1578" y="-75" as="targetPoint" />
          </mxGeometry>
        </mxCell>
        <mxCell id="gpzR5CBWOuM9B5lPcLhK-83" value="" style="endArrow=none;html=1;rounded=0;entryX=0.5;entryY=1;entryDx=0;entryDy=0;exitX=0.5;exitY=0;exitDx=0;exitDy=0;" parent="1" source="eGRWjD5pN5fuBiRvpTxn-89" target="gpzR5CBWOuM9B5lPcLhK-69" edge="1">
          <mxGeometry width="50" height="50" relative="1" as="geometry">
            <mxPoint x="1528" y="349" as="sourcePoint" />
            <mxPoint x="1578" y="-75" as="targetPoint" />
          </mxGeometry>
        </mxCell>
        <mxCell id="gpzR5CBWOuM9B5lPcLhK-84" value="" style="endArrow=none;html=1;rounded=0;entryX=0.5;entryY=1;entryDx=0;entryDy=0;exitX=0.5;exitY=0;exitDx=0;exitDy=0;" parent="1" source="eGRWjD5pN5fuBiRvpTxn-90" target="gpzR5CBWOuM9B5lPcLhK-70" edge="1">
          <mxGeometry width="50" height="50" relative="1" as="geometry">
            <mxPoint x="1672" y="349" as="sourcePoint" />
            <mxPoint x="1578" y="-75" as="targetPoint" />
          </mxGeometry>
        </mxCell>
        <mxCell id="eGRWjD5pN5fuBiRvpTxn-2" value="Fesz_id" style="rhombus;whiteSpace=wrap;html=1;" parent="1" vertex="1">
          <mxGeometry x="1623" y="490" width="80" height="60" as="geometry" />
        </mxCell>
        <mxCell id="eGRWjD5pN5fuBiRvpTxn-3" value="név" style="ellipse;whiteSpace=wrap;html=1;" parent="1" vertex="1">
          <mxGeometry x="-497" y="256" width="80" height="60" as="geometry" />
        </mxCell>
        <mxCell id="eGRWjD5pN5fuBiRvpTxn-4" value="adószám" style="ellipse;whiteSpace=wrap;html=1;" parent="1" vertex="1">
          <mxGeometry x="-407" y="256" width="80" height="60" as="geometry" />
        </mxCell>
        <mxCell id="eGRWjD5pN5fuBiRvpTxn-5" value="T_id" style="rhombus;whiteSpace=wrap;html=1;" parent="1" vertex="1">
          <mxGeometry x="-357" y="451" width="80" height="60" as="geometry" />
        </mxCell>
        <mxCell id="eGRWjD5pN5fuBiRvpTxn-6" value="" style="endArrow=none;html=1;rounded=0;exitX=0.5;exitY=0;exitDx=0;exitDy=0;entryX=0.208;entryY=0.95;entryDx=0;entryDy=0;entryPerimeter=0;" parent="1" source="eGRWjD5pN5fuBiRvpTxn-5" target="gpzR5CBWOuM9B5lPcLhK-59" edge="1">
          <mxGeometry width="50" height="50" relative="1" as="geometry">
            <mxPoint x="-277" y="435" as="sourcePoint" />
            <mxPoint x="-297" y="280" as="targetPoint" />
          </mxGeometry>
        </mxCell>
        <mxCell id="eGRWjD5pN5fuBiRvpTxn-7" value="" style="endArrow=none;html=1;rounded=0;entryX=0;entryY=0.5;entryDx=0;entryDy=0;exitX=1;exitY=0;exitDx=0;exitDy=0;" parent="1" source="eGRWjD5pN5fuBiRvpTxn-3" target="gpzR5CBWOuM9B5lPcLhK-59" edge="1">
          <mxGeometry width="50" height="50" relative="1" as="geometry">
            <mxPoint x="-377" y="185" as="sourcePoint" />
            <mxPoint x="-327" y="135" as="targetPoint" />
          </mxGeometry>
        </mxCell>
        <mxCell id="eGRWjD5pN5fuBiRvpTxn-8" value="" style="endArrow=none;html=1;rounded=0;entryX=0.033;entryY=0.725;entryDx=0;entryDy=0;entryPerimeter=0;exitX=0.5;exitY=0;exitDx=0;exitDy=0;" parent="1" source="eGRWjD5pN5fuBiRvpTxn-4" target="gpzR5CBWOuM9B5lPcLhK-59" edge="1">
          <mxGeometry width="50" height="50" relative="1" as="geometry">
            <mxPoint x="-377" y="185" as="sourcePoint" />
            <mxPoint x="-327" y="135" as="targetPoint" />
          </mxGeometry>
        </mxCell>
        <mxCell id="eGRWjD5pN5fuBiRvpTxn-9" value="alapítás" style="ellipse;whiteSpace=wrap;html=1;" parent="1" vertex="1">
          <mxGeometry x="-307" y="256" width="80" height="60" as="geometry" />
        </mxCell>
        <mxCell id="eGRWjD5pN5fuBiRvpTxn-10" value="" style="endArrow=none;html=1;rounded=0;entryX=0.567;entryY=0.988;entryDx=0;entryDy=0;entryPerimeter=0;exitX=0.5;exitY=0;exitDx=0;exitDy=0;" parent="1" source="eGRWjD5pN5fuBiRvpTxn-9" target="gpzR5CBWOuM9B5lPcLhK-59" edge="1">
          <mxGeometry width="50" height="50" relative="1" as="geometry">
            <mxPoint x="-297" y="225" as="sourcePoint" />
            <mxPoint x="-247" y="175" as="targetPoint" />
          </mxGeometry>
        </mxCell>
        <mxCell id="eGRWjD5pN5fuBiRvpTxn-11" value="Fesztivál" style="ellipse;whiteSpace=wrap;html=1;" parent="1" vertex="1">
          <mxGeometry x="1553" y="155" width="120" height="80" as="geometry" />
        </mxCell>
        <mxCell id="eGRWjD5pN5fuBiRvpTxn-12" value="" style="endArrow=none;html=1;rounded=0;entryX=1;entryY=0.5;entryDx=0;entryDy=0;exitX=0;exitY=0;exitDx=0;exitDy=0;" parent="1" source="eGRWjD5pN5fuBiRvpTxn-11" target="gpzR5CBWOuM9B5lPcLhK-56" edge="1">
          <mxGeometry width="50" height="50" relative="1" as="geometry">
            <mxPoint x="890" y="630" as="sourcePoint" />
            <mxPoint x="940" y="580" as="targetPoint" />
          </mxGeometry>
        </mxCell>
        <mxCell id="eGRWjD5pN5fuBiRvpTxn-18" value="bevétel" style="ellipse;whiteSpace=wrap;html=1;" parent="1" vertex="1">
          <mxGeometry x="-217" y="256" width="80" height="60" as="geometry" />
        </mxCell>
        <mxCell id="eGRWjD5pN5fuBiRvpTxn-19" value="" style="endArrow=none;html=1;rounded=0;entryX=0.925;entryY=0.763;entryDx=0;entryDy=0;entryPerimeter=0;exitX=0.275;exitY=0.083;exitDx=0;exitDy=0;exitPerimeter=0;" parent="1" source="eGRWjD5pN5fuBiRvpTxn-18" target="gpzR5CBWOuM9B5lPcLhK-59" edge="1">
          <mxGeometry width="50" height="50" relative="1" as="geometry">
            <mxPoint x="193" y="325" as="sourcePoint" />
            <mxPoint x="243" y="275" as="targetPoint" />
          </mxGeometry>
        </mxCell>
        <mxCell id="eGRWjD5pN5fuBiRvpTxn-26" value="" style="endArrow=none;html=1;rounded=0;entryX=0.5;entryY=1;entryDx=0;entryDy=0;exitX=0.5;exitY=0;exitDx=0;exitDy=0;" parent="1" source="eGRWjD5pN5fuBiRvpTxn-79" target="eGRWjD5pN5fuBiRvpTxn-18" edge="1">
          <mxGeometry width="50" height="50" relative="1" as="geometry">
            <mxPoint x="-178" y="336" as="sourcePoint" />
            <mxPoint x="203" y="515" as="targetPoint" />
          </mxGeometry>
        </mxCell>
        <mxCell id="eGRWjD5pN5fuBiRvpTxn-27" value="" style="endArrow=none;html=1;rounded=0;entryX=0.5;entryY=1;entryDx=0;entryDy=0;exitX=0.5;exitY=0;exitDx=0;exitDy=0;" parent="1" source="eGRWjD5pN5fuBiRvpTxn-80" target="eGRWjD5pN5fuBiRvpTxn-9" edge="1">
          <mxGeometry width="50" height="50" relative="1" as="geometry">
            <mxPoint x="-268" y="340" as="sourcePoint" />
            <mxPoint x="203" y="515" as="targetPoint" />
          </mxGeometry>
        </mxCell>
        <mxCell id="eGRWjD5pN5fuBiRvpTxn-28" value="" style="endArrow=none;html=1;rounded=0;entryX=0.5;entryY=1;entryDx=0;entryDy=0;exitX=0.5;exitY=0;exitDx=0;exitDy=0;" parent="1" source="eGRWjD5pN5fuBiRvpTxn-78" target="eGRWjD5pN5fuBiRvpTxn-4" edge="1">
          <mxGeometry width="50" height="50" relative="1" as="geometry">
            <mxPoint x="-366" y="339" as="sourcePoint" />
            <mxPoint x="203" y="515" as="targetPoint" />
          </mxGeometry>
        </mxCell>
        <mxCell id="eGRWjD5pN5fuBiRvpTxn-29" value="" style="endArrow=none;html=1;rounded=0;entryX=0.5;entryY=1;entryDx=0;entryDy=0;exitX=0.5;exitY=0;exitDx=0;exitDy=0;" parent="1" source="eGRWjD5pN5fuBiRvpTxn-77" target="eGRWjD5pN5fuBiRvpTxn-3" edge="1">
          <mxGeometry width="50" height="50" relative="1" as="geometry">
            <mxPoint x="-458" y="340.02" as="sourcePoint" />
            <mxPoint x="203" y="515" as="targetPoint" />
          </mxGeometry>
        </mxCell>
        <mxCell id="eGRWjD5pN5fuBiRvpTxn-31" value="név" style="ellipse;whiteSpace=wrap;html=1;" parent="1" vertex="1">
          <mxGeometry x="1860" y="256" width="80" height="60" as="geometry" />
        </mxCell>
        <mxCell id="eGRWjD5pN5fuBiRvpTxn-32" value="ország" style="ellipse;whiteSpace=wrap;html=1;" parent="1" vertex="1">
          <mxGeometry x="1950" y="256" width="80" height="60" as="geometry" />
        </mxCell>
        <mxCell id="eGRWjD5pN5fuBiRvpTxn-33" value="díj" style="ellipse;whiteSpace=wrap;html=1;" parent="1" vertex="1">
          <mxGeometry x="1766" y="256" width="80" height="60" as="geometry" />
        </mxCell>
        <mxCell id="eGRWjD5pN5fuBiRvpTxn-35" value="Fel_id" style="rhombus;whiteSpace=wrap;html=1;" parent="1" vertex="1">
          <mxGeometry x="1820" y="451" width="80" height="60" as="geometry" />
        </mxCell>
        <mxCell id="eGRWjD5pN5fuBiRvpTxn-36" value="" style="endArrow=none;html=1;rounded=0;entryX=0.733;entryY=0.988;entryDx=0;entryDy=0;exitX=0.5;exitY=0;exitDx=0;exitDy=0;entryPerimeter=0;" parent="1" source="eGRWjD5pN5fuBiRvpTxn-31" target="gpzR5CBWOuM9B5lPcLhK-60" edge="1">
          <mxGeometry width="50" height="50" relative="1" as="geometry">
            <mxPoint x="2200" y="410" as="sourcePoint" />
            <mxPoint x="2250" y="360" as="targetPoint" />
          </mxGeometry>
        </mxCell>
        <mxCell id="eGRWjD5pN5fuBiRvpTxn-37" value="" style="endArrow=none;html=1;rounded=0;entryX=0.633;entryY=0.938;entryDx=0;entryDy=0;entryPerimeter=0;exitX=0.5;exitY=0;exitDx=0;exitDy=0;" parent="1" source="eGRWjD5pN5fuBiRvpTxn-35" target="gpzR5CBWOuM9B5lPcLhK-60" edge="1">
          <mxGeometry width="50" height="50" relative="1" as="geometry">
            <mxPoint x="1924" y="410" as="sourcePoint" />
            <mxPoint x="1974" y="360" as="targetPoint" />
          </mxGeometry>
        </mxCell>
        <mxCell id="eGRWjD5pN5fuBiRvpTxn-38" value="" style="endArrow=none;html=1;rounded=0;entryX=0.358;entryY=0.988;entryDx=0;entryDy=0;exitX=0.5;exitY=0;exitDx=0;exitDy=0;entryPerimeter=0;" parent="1" source="eGRWjD5pN5fuBiRvpTxn-33" target="gpzR5CBWOuM9B5lPcLhK-60" edge="1">
          <mxGeometry width="50" height="50" relative="1" as="geometry">
            <mxPoint x="2200" y="410" as="sourcePoint" />
            <mxPoint x="2250" y="360" as="targetPoint" />
          </mxGeometry>
        </mxCell>
        <mxCell id="eGRWjD5pN5fuBiRvpTxn-39" value="" style="endArrow=none;html=1;rounded=0;entryX=0.942;entryY=0.763;entryDx=0;entryDy=0;entryPerimeter=0;exitX=0.375;exitY=0.067;exitDx=0;exitDy=0;exitPerimeter=0;" parent="1" source="eGRWjD5pN5fuBiRvpTxn-32" target="gpzR5CBWOuM9B5lPcLhK-60" edge="1">
          <mxGeometry width="50" height="50" relative="1" as="geometry">
            <mxPoint x="2200" y="410" as="sourcePoint" />
            <mxPoint x="2250" y="360" as="targetPoint" />
          </mxGeometry>
        </mxCell>
        <mxCell id="eGRWjD5pN5fuBiRvpTxn-47" value="" style="endArrow=none;html=1;rounded=0;entryX=0.5;entryY=0;entryDx=0;entryDy=0;exitX=0.5;exitY=1;exitDx=0;exitDy=0;" parent="1" source="eGRWjD5pN5fuBiRvpTxn-32" target="eGRWjD5pN5fuBiRvpTxn-93" edge="1">
          <mxGeometry width="50" height="50" relative="1" as="geometry">
            <mxPoint x="2130" y="570" as="sourcePoint" />
            <mxPoint x="1991" y="342.02" as="targetPoint" />
          </mxGeometry>
        </mxCell>
        <mxCell id="eGRWjD5pN5fuBiRvpTxn-48" value="" style="endArrow=none;html=1;rounded=0;entryX=0.5;entryY=1;entryDx=0;entryDy=0;exitX=0.5;exitY=0;exitDx=0;exitDy=0;" parent="1" source="eGRWjD5pN5fuBiRvpTxn-92" target="eGRWjD5pN5fuBiRvpTxn-31" edge="1">
          <mxGeometry width="50" height="50" relative="1" as="geometry">
            <mxPoint x="1879" y="345.02" as="sourcePoint" />
            <mxPoint x="2180" y="520" as="targetPoint" />
          </mxGeometry>
        </mxCell>
        <mxCell id="eGRWjD5pN5fuBiRvpTxn-49" value="" style="endArrow=none;html=1;rounded=0;entryX=0.5;entryY=1;entryDx=0;entryDy=0;exitX=0.5;exitY=0;exitDx=0;exitDy=0;" parent="1" source="eGRWjD5pN5fuBiRvpTxn-91" target="eGRWjD5pN5fuBiRvpTxn-33" edge="1">
          <mxGeometry width="50" height="50" relative="1" as="geometry">
            <mxPoint x="1758" y="350.02" as="sourcePoint" />
            <mxPoint x="2180" y="520" as="targetPoint" />
          </mxGeometry>
        </mxCell>
        <mxCell id="eGRWjD5pN5fuBiRvpTxn-54" value="B_id" style="rhombus;whiteSpace=wrap;html=1;" parent="1" vertex="1">
          <mxGeometry x="1343" y="451" width="80" height="60" as="geometry" />
        </mxCell>
        <mxCell id="eGRWjD5pN5fuBiRvpTxn-55" value="" style="endArrow=none;html=1;rounded=0;entryX=0.942;entryY=0.775;entryDx=0;entryDy=0;exitX=0.5;exitY=0;exitDx=0;exitDy=0;entryPerimeter=0;" parent="1" source="eGRWjD5pN5fuBiRvpTxn-54" target="gpzR5CBWOuM9B5lPcLhK-58" edge="1">
          <mxGeometry width="50" height="50" relative="1" as="geometry">
            <mxPoint x="1530" y="450" as="sourcePoint" />
            <mxPoint x="1580" y="400" as="targetPoint" />
          </mxGeometry>
        </mxCell>
        <mxCell id="eGRWjD5pN5fuBiRvpTxn-57" value="név" style="ellipse;whiteSpace=wrap;html=1;" parent="1" vertex="1">
          <mxGeometry x="1393" y="256" width="80" height="60" as="geometry" />
        </mxCell>
        <mxCell id="eGRWjD5pN5fuBiRvpTxn-58" value="cég" style="ellipse;whiteSpace=wrap;html=1;" parent="1" vertex="1">
          <mxGeometry x="1256" y="256" width="80" height="60" as="geometry" />
        </mxCell>
        <mxCell id="eGRWjD5pN5fuBiRvpTxn-59" value="ital" style="ellipse;whiteSpace=wrap;html=1;" parent="1" vertex="1">
          <mxGeometry x="1166" y="256" width="80" height="60" as="geometry" />
        </mxCell>
        <mxCell id="eGRWjD5pN5fuBiRvpTxn-60" value="" style="endArrow=none;html=1;rounded=0;entryX=0.679;entryY=0.975;entryDx=0;entryDy=0;entryPerimeter=0;exitX=0.325;exitY=-0.005;exitDx=0;exitDy=0;exitPerimeter=0;" parent="1" source="eGRWjD5pN5fuBiRvpTxn-120" target="gpzR5CBWOuM9B5lPcLhK-56" edge="1">
          <mxGeometry width="50" height="50" relative="1" as="geometry">
            <mxPoint x="1060" y="690" as="sourcePoint" />
            <mxPoint x="1050" y="270" as="targetPoint" />
          </mxGeometry>
        </mxCell>
        <mxCell id="eGRWjD5pN5fuBiRvpTxn-61" value="" style="endArrow=none;html=1;rounded=0;entryX=0.5;entryY=0;entryDx=0;entryDy=0;exitX=0.975;exitY=0.75;exitDx=0;exitDy=0;exitPerimeter=0;" parent="1" source="gpzR5CBWOuM9B5lPcLhK-58" target="eGRWjD5pN5fuBiRvpTxn-57" edge="1">
          <mxGeometry width="50" height="50" relative="1" as="geometry">
            <mxPoint x="1316" y="200" as="sourcePoint" />
            <mxPoint x="1616" y="400" as="targetPoint" />
          </mxGeometry>
        </mxCell>
        <mxCell id="eGRWjD5pN5fuBiRvpTxn-62" value="" style="endArrow=none;html=1;rounded=0;entryX=0.342;entryY=0.963;entryDx=0;entryDy=0;exitX=0.588;exitY=-0.033;exitDx=0;exitDy=0;exitPerimeter=0;entryPerimeter=0;" parent="1" source="eGRWjD5pN5fuBiRvpTxn-58" target="gpzR5CBWOuM9B5lPcLhK-58" edge="1">
          <mxGeometry width="50" height="50" relative="1" as="geometry">
            <mxPoint x="1566" y="450" as="sourcePoint" />
            <mxPoint x="1616" y="400" as="targetPoint" />
          </mxGeometry>
        </mxCell>
        <mxCell id="eGRWjD5pN5fuBiRvpTxn-63" value="" style="endArrow=none;html=1;rounded=0;entryX=0.025;entryY=0.613;entryDx=0;entryDy=0;entryPerimeter=0;exitX=1;exitY=0;exitDx=0;exitDy=0;" parent="1" source="eGRWjD5pN5fuBiRvpTxn-59" target="gpzR5CBWOuM9B5lPcLhK-58" edge="1">
          <mxGeometry width="50" height="50" relative="1" as="geometry">
            <mxPoint x="1566" y="450" as="sourcePoint" />
            <mxPoint x="1616" y="400" as="targetPoint" />
          </mxGeometry>
        </mxCell>
        <mxCell id="eGRWjD5pN5fuBiRvpTxn-65" value="" style="endArrow=none;html=1;rounded=0;entryX=0.5;entryY=1;entryDx=0;entryDy=0;exitX=0.5;exitY=0;exitDx=0;exitDy=0;" parent="1" source="eGRWjD5pN5fuBiRvpTxn-87" target="eGRWjD5pN5fuBiRvpTxn-57" edge="1">
          <mxGeometry width="50" height="50" relative="1" as="geometry">
            <mxPoint x="1332" y="345.98" as="sourcePoint" />
            <mxPoint x="1616" y="400" as="targetPoint" />
          </mxGeometry>
        </mxCell>
        <mxCell id="eGRWjD5pN5fuBiRvpTxn-67" value="" style="endArrow=none;html=1;rounded=0;entryX=0.5;entryY=1;entryDx=0;entryDy=0;exitX=0.5;exitY=0;exitDx=0;exitDy=0;" parent="1" source="eGRWjD5pN5fuBiRvpTxn-86" target="eGRWjD5pN5fuBiRvpTxn-58" edge="1">
          <mxGeometry width="50" height="50" relative="1" as="geometry">
            <mxPoint x="1162" y="341.98" as="sourcePoint" />
            <mxPoint x="1616" y="400" as="targetPoint" />
          </mxGeometry>
        </mxCell>
        <mxCell id="eGRWjD5pN5fuBiRvpTxn-69" value="" style="endArrow=none;html=1;rounded=0;entryX=0.5;entryY=1;entryDx=0;entryDy=0;exitX=0.5;exitY=0;exitDx=0;exitDy=0;" parent="1" source="eGRWjD5pN5fuBiRvpTxn-85" target="eGRWjD5pN5fuBiRvpTxn-59" edge="1">
          <mxGeometry width="50" height="50" relative="1" as="geometry">
            <mxPoint x="1065" y="341.02" as="sourcePoint" />
            <mxPoint x="1616" y="400" as="targetPoint" />
          </mxGeometry>
        </mxCell>
        <mxCell id="eGRWjD5pN5fuBiRvpTxn-70" value="név" style="ellipse;whiteSpace=wrap;html=1;" parent="1" vertex="1">
          <mxGeometry x="-127" y="256" width="80" height="60" as="geometry" />
        </mxCell>
        <mxCell id="eGRWjD5pN5fuBiRvpTxn-71" value="diákigazolvány&lt;br&gt;(O)" style="ellipse;whiteSpace=wrap;html=1;" parent="1" vertex="1">
          <mxGeometry x="-37" y="256" width="80" height="60" as="geometry" />
        </mxCell>
        <mxCell id="eGRWjD5pN5fuBiRvpTxn-72" value="R_id" style="rhombus;whiteSpace=wrap;html=1;" parent="1" vertex="1">
          <mxGeometry x="13" y="440" width="80" height="60" as="geometry" />
        </mxCell>
        <mxCell id="eGRWjD5pN5fuBiRvpTxn-73" value="" style="endArrow=none;html=1;rounded=0;entryX=0.033;entryY=0.725;entryDx=0;entryDy=0;entryPerimeter=0;exitX=0.75;exitY=0.083;exitDx=0;exitDy=0;exitPerimeter=0;" parent="1" source="eGRWjD5pN5fuBiRvpTxn-70" target="gpzR5CBWOuM9B5lPcLhK-57" edge="1">
          <mxGeometry width="50" height="50" relative="1" as="geometry">
            <mxPoint x="363" y="430" as="sourcePoint" />
            <mxPoint x="413" y="380" as="targetPoint" />
          </mxGeometry>
        </mxCell>
        <mxCell id="eGRWjD5pN5fuBiRvpTxn-74" value="" style="endArrow=none;html=1;rounded=0;entryX=0.242;entryY=0.925;entryDx=0;entryDy=0;entryPerimeter=0;exitX=0.65;exitY=0.05;exitDx=0;exitDy=0;exitPerimeter=0;" parent="1" source="eGRWjD5pN5fuBiRvpTxn-71" target="gpzR5CBWOuM9B5lPcLhK-57" edge="1">
          <mxGeometry width="50" height="50" relative="1" as="geometry">
            <mxPoint x="363" y="430" as="sourcePoint" />
            <mxPoint x="413" y="380" as="targetPoint" />
          </mxGeometry>
        </mxCell>
        <mxCell id="eGRWjD5pN5fuBiRvpTxn-75" value="" style="endArrow=none;html=1;rounded=0;entryX=0.242;entryY=0.913;entryDx=0;entryDy=0;exitX=0.5;exitY=0;exitDx=0;exitDy=0;entryPerimeter=0;" parent="1" source="eGRWjD5pN5fuBiRvpTxn-72" target="gpzR5CBWOuM9B5lPcLhK-57" edge="1">
          <mxGeometry width="50" height="50" relative="1" as="geometry">
            <mxPoint x="363" y="430" as="sourcePoint" />
            <mxPoint x="413" y="380" as="targetPoint" />
          </mxGeometry>
        </mxCell>
        <mxCell id="eGRWjD5pN5fuBiRvpTxn-77" value="" style="rounded=0;whiteSpace=wrap;html=1;" parent="1" vertex="1">
          <mxGeometry x="-482" y="340" width="50" height="70" as="geometry" />
        </mxCell>
        <mxCell id="eGRWjD5pN5fuBiRvpTxn-78" value="" style="rounded=0;whiteSpace=wrap;html=1;" parent="1" vertex="1">
          <mxGeometry x="-392" y="340" width="50" height="70" as="geometry" />
        </mxCell>
        <mxCell id="eGRWjD5pN5fuBiRvpTxn-79" value="" style="rounded=0;whiteSpace=wrap;html=1;" parent="1" vertex="1">
          <mxGeometry x="-202" y="340" width="50" height="70" as="geometry" />
        </mxCell>
        <mxCell id="eGRWjD5pN5fuBiRvpTxn-80" value="" style="rounded=0;whiteSpace=wrap;html=1;" parent="1" vertex="1">
          <mxGeometry x="-292" y="340" width="50" height="70" as="geometry" />
        </mxCell>
        <mxCell id="eGRWjD5pN5fuBiRvpTxn-81" value="" style="rounded=0;whiteSpace=wrap;html=1;" parent="1" vertex="1">
          <mxGeometry x="-112" y="340" width="50" height="70" as="geometry" />
        </mxCell>
        <mxCell id="eGRWjD5pN5fuBiRvpTxn-82" value="" style="rounded=0;whiteSpace=wrap;html=1;" parent="1" vertex="1">
          <mxGeometry x="-22" y="340" width="50" height="70" as="geometry" />
        </mxCell>
        <mxCell id="eGRWjD5pN5fuBiRvpTxn-83" value="" style="endArrow=none;html=1;rounded=0;entryX=0.5;entryY=1;entryDx=0;entryDy=0;exitX=0.5;exitY=0;exitDx=0;exitDy=0;" parent="1" source="eGRWjD5pN5fuBiRvpTxn-81" target="eGRWjD5pN5fuBiRvpTxn-70" edge="1">
          <mxGeometry width="50" height="50" relative="1" as="geometry">
            <mxPoint x="203" y="430" as="sourcePoint" />
            <mxPoint x="253" y="380" as="targetPoint" />
          </mxGeometry>
        </mxCell>
        <mxCell id="eGRWjD5pN5fuBiRvpTxn-84" value="" style="endArrow=none;html=1;rounded=0;entryX=0.5;entryY=1;entryDx=0;entryDy=0;exitX=0.5;exitY=0;exitDx=0;exitDy=0;" parent="1" source="eGRWjD5pN5fuBiRvpTxn-82" target="eGRWjD5pN5fuBiRvpTxn-71" edge="1">
          <mxGeometry width="50" height="50" relative="1" as="geometry">
            <mxPoint x="203" y="430" as="sourcePoint" />
            <mxPoint x="253" y="380" as="targetPoint" />
          </mxGeometry>
        </mxCell>
        <mxCell id="eGRWjD5pN5fuBiRvpTxn-85" value="" style="rounded=0;whiteSpace=wrap;html=1;" parent="1" vertex="1">
          <mxGeometry x="1181" y="340" width="50" height="70" as="geometry" />
        </mxCell>
        <mxCell id="eGRWjD5pN5fuBiRvpTxn-86" value="" style="rounded=0;whiteSpace=wrap;html=1;" parent="1" vertex="1">
          <mxGeometry x="1271" y="340" width="50" height="70" as="geometry" />
        </mxCell>
        <mxCell id="eGRWjD5pN5fuBiRvpTxn-87" value="" style="rounded=0;whiteSpace=wrap;html=1;" parent="1" vertex="1">
          <mxGeometry x="1408" y="340" width="50" height="70" as="geometry" />
        </mxCell>
        <mxCell id="eGRWjD5pN5fuBiRvpTxn-88" value="" style="rounded=0;whiteSpace=wrap;html=1;" parent="1" vertex="1">
          <mxGeometry x="1501" y="340" width="50" height="70" as="geometry" />
        </mxCell>
        <mxCell id="eGRWjD5pN5fuBiRvpTxn-89" value="" style="rounded=0;whiteSpace=wrap;html=1;" parent="1" vertex="1">
          <mxGeometry x="1588" y="340" width="50" height="70" as="geometry" />
        </mxCell>
        <mxCell id="eGRWjD5pN5fuBiRvpTxn-90" value="" style="rounded=0;whiteSpace=wrap;html=1;" parent="1" vertex="1">
          <mxGeometry x="1688" y="340" width="50" height="70" as="geometry" />
        </mxCell>
        <mxCell id="eGRWjD5pN5fuBiRvpTxn-91" value="" style="rounded=0;whiteSpace=wrap;html=1;" parent="1" vertex="1">
          <mxGeometry x="1781" y="340" width="50" height="70" as="geometry" />
        </mxCell>
        <mxCell id="eGRWjD5pN5fuBiRvpTxn-92" value="" style="rounded=0;whiteSpace=wrap;html=1;" parent="1" vertex="1">
          <mxGeometry x="1875" y="340" width="50" height="70" as="geometry" />
        </mxCell>
        <mxCell id="eGRWjD5pN5fuBiRvpTxn-93" value="" style="rounded=0;whiteSpace=wrap;html=1;" parent="1" vertex="1">
          <mxGeometry x="1965" y="340" width="50" height="70" as="geometry" />
        </mxCell>
        <mxCell id="eGRWjD5pN5fuBiRvpTxn-94" value="" style="endArrow=none;html=1;rounded=0;exitX=0.5;exitY=0;exitDx=0;exitDy=0;" parent="1" source="eGRWjD5pN5fuBiRvpTxn-95" edge="1">
          <mxGeometry width="50" height="50" relative="1" as="geometry">
            <mxPoint x="-397" y="480" as="sourcePoint" />
            <mxPoint x="-317" y="420" as="targetPoint" />
          </mxGeometry>
        </mxCell>
        <mxCell id="ZJUqIeF_-J3eagiU4TCH-17" style="edgeStyle=orthogonalEdgeStyle;rounded=0;orthogonalLoop=1;jettySize=auto;html=1;exitX=0.5;exitY=1;exitDx=0;exitDy=0;entryX=1;entryY=0.5;entryDx=0;entryDy=0;" edge="1" parent="1" source="eGRWjD5pN5fuBiRvpTxn-95" target="eGRWjD5pN5fuBiRvpTxn-2">
          <mxGeometry relative="1" as="geometry">
            <Array as="points">
              <mxPoint x="-237" y="740" />
              <mxPoint x="1703" y="740" />
            </Array>
          </mxGeometry>
        </mxCell>
        <mxCell id="eGRWjD5pN5fuBiRvpTxn-95" value="Fesz_T" style="rhombus;whiteSpace=wrap;html=1;" parent="1" vertex="1">
          <mxGeometry x="-277" y="470" width="80" height="60" as="geometry" />
        </mxCell>
        <mxCell id="eGRWjD5pN5fuBiRvpTxn-96" value="" style="endArrow=none;html=1;rounded=0;entryX=0.5;entryY=0;entryDx=0;entryDy=0;" parent="1" target="eGRWjD5pN5fuBiRvpTxn-97" edge="1">
          <mxGeometry width="50" height="50" relative="1" as="geometry">
            <mxPoint x="1860" y="420" as="sourcePoint" />
            <mxPoint x="1650" y="480" as="targetPoint" />
          </mxGeometry>
        </mxCell>
        <mxCell id="2494E5i11pp2VTstkDPC-6" style="edgeStyle=orthogonalEdgeStyle;rounded=0;orthogonalLoop=1;jettySize=auto;html=1;exitX=0;exitY=0.5;exitDx=0;exitDy=0;entryX=1;entryY=0.5;entryDx=0;entryDy=0;" parent="1" source="eGRWjD5pN5fuBiRvpTxn-97" target="eGRWjD5pN5fuBiRvpTxn-2" edge="1">
          <mxGeometry relative="1" as="geometry" />
        </mxCell>
        <mxCell id="eGRWjD5pN5fuBiRvpTxn-97" value="Fel_Fesz" style="rhombus;whiteSpace=wrap;html=1;" parent="1" vertex="1">
          <mxGeometry x="1748" y="490" width="80" height="60" as="geometry" />
        </mxCell>
        <mxCell id="eGRWjD5pN5fuBiRvpTxn-99" value="(lakcím)" style="ellipse;whiteSpace=wrap;html=1;" parent="1" vertex="1">
          <mxGeometry x="193" y="256" width="80" height="60" as="geometry" />
        </mxCell>
        <mxCell id="eGRWjD5pN5fuBiRvpTxn-100" value="" style="endArrow=none;html=1;rounded=0;entryX=1;entryY=0.5;entryDx=0;entryDy=0;exitX=0.5;exitY=0;exitDx=0;exitDy=0;" parent="1" source="eGRWjD5pN5fuBiRvpTxn-99" target="gpzR5CBWOuM9B5lPcLhK-57" edge="1">
          <mxGeometry width="50" height="50" relative="1" as="geometry">
            <mxPoint x="613" y="350" as="sourcePoint" />
            <mxPoint x="663" y="300" as="targetPoint" />
          </mxGeometry>
        </mxCell>
        <mxCell id="eGRWjD5pN5fuBiRvpTxn-101" value="település" style="ellipse;whiteSpace=wrap;html=1;" parent="1" vertex="1">
          <mxGeometry x="280" y="440" width="80" height="60" as="geometry" />
        </mxCell>
        <mxCell id="eGRWjD5pN5fuBiRvpTxn-102" value="utca" style="ellipse;whiteSpace=wrap;html=1;" parent="1" vertex="1">
          <mxGeometry x="193" y="440" width="80" height="60" as="geometry" />
        </mxCell>
        <mxCell id="eGRWjD5pN5fuBiRvpTxn-103" value="házszám" style="ellipse;whiteSpace=wrap;html=1;" parent="1" vertex="1">
          <mxGeometry x="103" y="440" width="80" height="60" as="geometry" />
        </mxCell>
        <mxCell id="eGRWjD5pN5fuBiRvpTxn-104" value="" style="endArrow=none;html=1;rounded=0;entryX=1;entryY=1;entryDx=0;entryDy=0;exitX=0.381;exitY=0.017;exitDx=0;exitDy=0;exitPerimeter=0;" parent="1" source="eGRWjD5pN5fuBiRvpTxn-101" target="eGRWjD5pN5fuBiRvpTxn-99" edge="1">
          <mxGeometry width="50" height="50" relative="1" as="geometry">
            <mxPoint x="300.6399999999999" y="445.4000000000001" as="sourcePoint" />
            <mxPoint x="553" y="480" as="targetPoint" />
          </mxGeometry>
        </mxCell>
        <mxCell id="eGRWjD5pN5fuBiRvpTxn-105" value="" style="endArrow=none;html=1;rounded=0;entryX=0.5;entryY=1;entryDx=0;entryDy=0;exitX=0.5;exitY=0;exitDx=0;exitDy=0;" parent="1" source="eGRWjD5pN5fuBiRvpTxn-102" target="eGRWjD5pN5fuBiRvpTxn-99" edge="1">
          <mxGeometry width="50" height="50" relative="1" as="geometry">
            <mxPoint x="503" y="530" as="sourcePoint" />
            <mxPoint x="553" y="480" as="targetPoint" />
          </mxGeometry>
        </mxCell>
        <mxCell id="eGRWjD5pN5fuBiRvpTxn-106" value="" style="endArrow=none;html=1;rounded=0;entryX=0;entryY=1;entryDx=0;entryDy=0;exitX=0.744;exitY=0.09;exitDx=0;exitDy=0;exitPerimeter=0;" parent="1" source="eGRWjD5pN5fuBiRvpTxn-103" target="eGRWjD5pN5fuBiRvpTxn-99" edge="1">
          <mxGeometry width="50" height="50" relative="1" as="geometry">
            <mxPoint x="503" y="530" as="sourcePoint" />
            <mxPoint x="553" y="480" as="targetPoint" />
          </mxGeometry>
        </mxCell>
        <mxCell id="eGRWjD5pN5fuBiRvpTxn-107" value="" style="endArrow=none;html=1;rounded=0;entryX=0.5;entryY=1;entryDx=0;entryDy=0;exitX=0.5;exitY=0;exitDx=0;exitDy=0;" parent="1" source="eGRWjD5pN5fuBiRvpTxn-108" target="eGRWjD5pN5fuBiRvpTxn-101" edge="1">
          <mxGeometry width="50" height="50" relative="1" as="geometry">
            <mxPoint x="320" y="530" as="sourcePoint" />
            <mxPoint x="320" y="500" as="targetPoint" />
          </mxGeometry>
        </mxCell>
        <mxCell id="eGRWjD5pN5fuBiRvpTxn-108" value="" style="rounded=0;whiteSpace=wrap;html=1;" parent="1" vertex="1">
          <mxGeometry x="295" y="515" width="50" height="70" as="geometry" />
        </mxCell>
        <mxCell id="eGRWjD5pN5fuBiRvpTxn-109" value="" style="rounded=0;whiteSpace=wrap;html=1;" parent="1" vertex="1">
          <mxGeometry x="208" y="515" width="50" height="70" as="geometry" />
        </mxCell>
        <mxCell id="eGRWjD5pN5fuBiRvpTxn-110" value="" style="rounded=0;whiteSpace=wrap;html=1;" parent="1" vertex="1">
          <mxGeometry x="118" y="515" width="50" height="70" as="geometry" />
        </mxCell>
        <mxCell id="eGRWjD5pN5fuBiRvpTxn-111" value="" style="endArrow=none;html=1;rounded=0;entryX=0.5;entryY=1;entryDx=0;entryDy=0;exitX=0.5;exitY=0;exitDx=0;exitDy=0;" parent="1" source="eGRWjD5pN5fuBiRvpTxn-109" target="eGRWjD5pN5fuBiRvpTxn-102" edge="1">
          <mxGeometry width="50" height="50" relative="1" as="geometry">
            <mxPoint x="513" y="530" as="sourcePoint" />
            <mxPoint x="563" y="480" as="targetPoint" />
          </mxGeometry>
        </mxCell>
        <mxCell id="eGRWjD5pN5fuBiRvpTxn-112" value="" style="endArrow=none;html=1;rounded=0;entryX=0.5;entryY=1;entryDx=0;entryDy=0;exitX=0.5;exitY=0;exitDx=0;exitDy=0;" parent="1" source="eGRWjD5pN5fuBiRvpTxn-110" target="eGRWjD5pN5fuBiRvpTxn-103" edge="1">
          <mxGeometry width="50" height="50" relative="1" as="geometry">
            <mxPoint x="513" y="530" as="sourcePoint" />
            <mxPoint x="563" y="480" as="targetPoint" />
          </mxGeometry>
        </mxCell>
        <mxCell id="eGRWjD5pN5fuBiRvpTxn-115" value="" style="endArrow=none;html=1;rounded=0;exitX=0.5;exitY=0;exitDx=0;exitDy=0;" parent="1" source="eGRWjD5pN5fuBiRvpTxn-116" edge="1">
          <mxGeometry width="50" height="50" relative="1" as="geometry">
            <mxPoint x="1463" y="570" as="sourcePoint" />
            <mxPoint x="1383" y="420" as="targetPoint" />
          </mxGeometry>
        </mxCell>
        <mxCell id="2494E5i11pp2VTstkDPC-7" style="edgeStyle=orthogonalEdgeStyle;rounded=0;orthogonalLoop=1;jettySize=auto;html=1;exitX=1;exitY=0.5;exitDx=0;exitDy=0;entryX=0;entryY=0.5;entryDx=0;entryDy=0;" parent="1" source="eGRWjD5pN5fuBiRvpTxn-116" target="eGRWjD5pN5fuBiRvpTxn-2" edge="1">
          <mxGeometry relative="1" as="geometry" />
        </mxCell>
        <mxCell id="eGRWjD5pN5fuBiRvpTxn-116" value="Fesz_B" style="rhombus;whiteSpace=wrap;html=1;" parent="1" vertex="1">
          <mxGeometry x="1423" y="490" width="80" height="60" as="geometry" />
        </mxCell>
        <mxCell id="eGRWjD5pN5fuBiRvpTxn-117" value="" style="endArrow=none;html=1;rounded=0;exitX=0.5;exitY=0;exitDx=0;exitDy=0;" parent="1" source="eGRWjD5pN5fuBiRvpTxn-118" edge="1">
          <mxGeometry width="50" height="50" relative="1" as="geometry">
            <mxPoint x="-17" y="470" as="sourcePoint" />
            <mxPoint x="53" y="420" as="targetPoint" />
          </mxGeometry>
        </mxCell>
        <mxCell id="2494E5i11pp2VTstkDPC-5" style="edgeStyle=orthogonalEdgeStyle;rounded=0;orthogonalLoop=1;jettySize=auto;html=1;entryX=0.5;entryY=1;entryDx=0;entryDy=0;exitX=0.5;exitY=1;exitDx=0;exitDy=0;" parent="1" source="eGRWjD5pN5fuBiRvpTxn-118" target="eGRWjD5pN5fuBiRvpTxn-2" edge="1">
          <mxGeometry relative="1" as="geometry">
            <mxPoint x="1290" y="1000" as="targetPoint" />
            <Array as="points">
              <mxPoint x="-17" y="730" />
              <mxPoint x="1663" y="730" />
            </Array>
          </mxGeometry>
        </mxCell>
        <mxCell id="eGRWjD5pN5fuBiRvpTxn-118" value="Fesz_R" style="rhombus;whiteSpace=wrap;html=1;" parent="1" vertex="1">
          <mxGeometry x="-57" y="470" width="80" height="60" as="geometry" />
        </mxCell>
        <mxCell id="eGRWjD5pN5fuBiRvpTxn-119" value="Nyelvtudás" style="ellipse;whiteSpace=wrap;html=1;" parent="1" vertex="1">
          <mxGeometry x="540" y="155" width="120" height="80" as="geometry" />
        </mxCell>
        <mxCell id="eGRWjD5pN5fuBiRvpTxn-120" value="Alkalmazott" style="ellipse;whiteSpace=wrap;html=1;" parent="1" vertex="1">
          <mxGeometry x="881" y="155" width="120" height="80" as="geometry" />
        </mxCell>
        <mxCell id="eGRWjD5pN5fuBiRvpTxn-121" value="nyelv" style="ellipse;whiteSpace=wrap;html=1;" parent="1" vertex="1">
          <mxGeometry x="470" y="256" width="80" height="60" as="geometry" />
        </mxCell>
        <mxCell id="eGRWjD5pN5fuBiRvpTxn-122" value="" style="rounded=0;whiteSpace=wrap;html=1;" parent="1" vertex="1">
          <mxGeometry x="485" y="340" width="50" height="70" as="geometry" />
        </mxCell>
        <mxCell id="eGRWjD5pN5fuBiRvpTxn-123" value="" style="endArrow=none;html=1;rounded=0;entryX=0.5;entryY=1;entryDx=0;entryDy=0;exitX=0.5;exitY=0;exitDx=0;exitDy=0;" parent="1" source="eGRWjD5pN5fuBiRvpTxn-122" target="eGRWjD5pN5fuBiRvpTxn-121" edge="1">
          <mxGeometry width="50" height="50" relative="1" as="geometry">
            <mxPoint x="1193" y="378" as="sourcePoint" />
            <mxPoint x="1243" y="328" as="targetPoint" />
          </mxGeometry>
        </mxCell>
        <mxCell id="eGRWjD5pN5fuBiRvpTxn-124" value="szint" style="ellipse;whiteSpace=wrap;html=1;" parent="1" vertex="1">
          <mxGeometry x="620" y="256" width="80" height="60" as="geometry" />
        </mxCell>
        <mxCell id="eGRWjD5pN5fuBiRvpTxn-125" value="" style="rounded=0;whiteSpace=wrap;html=1;" parent="1" vertex="1">
          <mxGeometry x="635" y="340" width="50" height="70" as="geometry" />
        </mxCell>
        <mxCell id="eGRWjD5pN5fuBiRvpTxn-126" value="" style="endArrow=none;html=1;rounded=0;entryX=0.5;entryY=1;entryDx=0;entryDy=0;exitX=0.5;exitY=0;exitDx=0;exitDy=0;" parent="1" source="eGRWjD5pN5fuBiRvpTxn-125" target="eGRWjD5pN5fuBiRvpTxn-124" edge="1">
          <mxGeometry width="50" height="50" relative="1" as="geometry">
            <mxPoint x="1305" y="388" as="sourcePoint" />
            <mxPoint x="1355" y="338" as="targetPoint" />
          </mxGeometry>
        </mxCell>
        <mxCell id="eGRWjD5pN5fuBiRvpTxn-131" value="" style="endArrow=none;html=1;rounded=0;entryX=0.752;entryY=0.929;entryDx=0;entryDy=0;entryPerimeter=0;exitX=0.5;exitY=0;exitDx=0;exitDy=0;" parent="1" source="eGRWjD5pN5fuBiRvpTxn-124" target="eGRWjD5pN5fuBiRvpTxn-119" edge="1">
          <mxGeometry width="50" height="50" relative="1" as="geometry">
            <mxPoint x="1168" y="208" as="sourcePoint" />
            <mxPoint x="1218" y="158" as="targetPoint" />
          </mxGeometry>
        </mxCell>
        <mxCell id="eGRWjD5pN5fuBiRvpTxn-132" value="" style="endArrow=none;html=1;rounded=0;entryX=0.257;entryY=0.973;entryDx=0;entryDy=0;exitX=1;exitY=0;exitDx=0;exitDy=0;entryPerimeter=0;" parent="1" source="eGRWjD5pN5fuBiRvpTxn-121" target="eGRWjD5pN5fuBiRvpTxn-119" edge="1">
          <mxGeometry width="50" height="50" relative="1" as="geometry">
            <mxPoint x="1168" y="208" as="sourcePoint" />
            <mxPoint x="1218" y="158" as="targetPoint" />
          </mxGeometry>
        </mxCell>
        <mxCell id="eGRWjD5pN5fuBiRvpTxn-133" value="Ny_id" style="rhombus;whiteSpace=wrap;html=1;" parent="1" vertex="1">
          <mxGeometry x="569" y="430" width="80" height="60" as="geometry" />
        </mxCell>
        <mxCell id="eGRWjD5pN5fuBiRvpTxn-134" value="" style="endArrow=none;html=1;rounded=0;entryX=0.579;entryY=0.988;entryDx=0;entryDy=0;exitX=0.5;exitY=0;exitDx=0;exitDy=0;entryPerimeter=0;" parent="1" source="eGRWjD5pN5fuBiRvpTxn-133" target="eGRWjD5pN5fuBiRvpTxn-119" edge="1">
          <mxGeometry width="50" height="50" relative="1" as="geometry">
            <mxPoint x="978" y="208" as="sourcePoint" />
            <mxPoint x="1028" y="158" as="targetPoint" />
          </mxGeometry>
        </mxCell>
        <mxCell id="eGRWjD5pN5fuBiRvpTxn-136" value="név" style="ellipse;whiteSpace=wrap;html=1;" parent="1" vertex="1">
          <mxGeometry x="777" y="256" width="80" height="60" as="geometry" />
        </mxCell>
        <mxCell id="eGRWjD5pN5fuBiRvpTxn-137" value="" style="rounded=0;whiteSpace=wrap;html=1;" parent="1" vertex="1">
          <mxGeometry x="793" y="340" width="50" height="70" as="geometry" />
        </mxCell>
        <mxCell id="eGRWjD5pN5fuBiRvpTxn-138" value="" style="endArrow=none;html=1;rounded=0;entryX=0.5;entryY=1;entryDx=0;entryDy=0;exitX=0.5;exitY=0;exitDx=0;exitDy=0;" parent="1" source="eGRWjD5pN5fuBiRvpTxn-137" target="eGRWjD5pN5fuBiRvpTxn-136" edge="1">
          <mxGeometry width="50" height="50" relative="1" as="geometry">
            <mxPoint x="1424" y="386" as="sourcePoint" />
            <mxPoint x="1474" y="336" as="targetPoint" />
          </mxGeometry>
        </mxCell>
        <mxCell id="eGRWjD5pN5fuBiRvpTxn-140" value="" style="rounded=0;whiteSpace=wrap;html=1;" parent="1" vertex="1">
          <mxGeometry x="916" y="340" width="50" height="70" as="geometry" />
        </mxCell>
        <mxCell id="eGRWjD5pN5fuBiRvpTxn-141" value="" style="endArrow=none;html=1;rounded=0;entryX=0.5;entryY=1;entryDx=0;entryDy=0;exitX=0.5;exitY=0;exitDx=0;exitDy=0;" parent="1" source="eGRWjD5pN5fuBiRvpTxn-140" target="ZJUqIeF_-J3eagiU4TCH-18" edge="1">
          <mxGeometry width="50" height="50" relative="1" as="geometry">
            <mxPoint x="1548" y="386" as="sourcePoint" />
            <mxPoint x="933.25" y="316" as="targetPoint" />
          </mxGeometry>
        </mxCell>
        <mxCell id="eGRWjD5pN5fuBiRvpTxn-142" value="fizetés" style="ellipse;whiteSpace=wrap;html=1;" parent="1" vertex="1">
          <mxGeometry x="991" y="256" width="80" height="60" as="geometry" />
        </mxCell>
        <mxCell id="eGRWjD5pN5fuBiRvpTxn-143" value="" style="rounded=0;whiteSpace=wrap;html=1;" parent="1" vertex="1">
          <mxGeometry x="1006" y="340" width="50" height="70" as="geometry" />
        </mxCell>
        <mxCell id="eGRWjD5pN5fuBiRvpTxn-144" value="" style="endArrow=none;html=1;rounded=0;entryX=0.5;entryY=1;entryDx=0;entryDy=0;exitX=0.5;exitY=0;exitDx=0;exitDy=0;" parent="1" source="eGRWjD5pN5fuBiRvpTxn-143" target="eGRWjD5pN5fuBiRvpTxn-142" edge="1">
          <mxGeometry width="50" height="50" relative="1" as="geometry">
            <mxPoint x="1638" y="386" as="sourcePoint" />
            <mxPoint x="1688" y="336" as="targetPoint" />
          </mxGeometry>
        </mxCell>
        <mxCell id="eGRWjD5pN5fuBiRvpTxn-145" value="" style="endArrow=none;html=1;rounded=0;entryX=1;entryY=1;entryDx=0;entryDy=0;exitX=0;exitY=0;exitDx=0;exitDy=0;" parent="1" source="eGRWjD5pN5fuBiRvpTxn-142" target="eGRWjD5pN5fuBiRvpTxn-120" edge="1">
          <mxGeometry width="50" height="50" relative="1" as="geometry">
            <mxPoint x="1161" y="135" as="sourcePoint" />
            <mxPoint x="1211" y="85" as="targetPoint" />
          </mxGeometry>
        </mxCell>
        <mxCell id="eGRWjD5pN5fuBiRvpTxn-146" value="" style="endArrow=none;html=1;rounded=0;entryX=0.5;entryY=1;entryDx=0;entryDy=0;exitX=0.5;exitY=0;exitDx=0;exitDy=0;" parent="1" source="ZJUqIeF_-J3eagiU4TCH-18" target="eGRWjD5pN5fuBiRvpTxn-120" edge="1">
          <mxGeometry width="50" height="50" relative="1" as="geometry">
            <mxPoint x="933.25" y="260" as="sourcePoint" />
            <mxPoint x="1211" y="85" as="targetPoint" />
          </mxGeometry>
        </mxCell>
        <mxCell id="eGRWjD5pN5fuBiRvpTxn-147" value="" style="endArrow=none;html=1;rounded=0;entryX=0.046;entryY=0.725;entryDx=0;entryDy=0;exitX=1;exitY=0;exitDx=0;exitDy=0;entryPerimeter=0;" parent="1" source="eGRWjD5pN5fuBiRvpTxn-136" target="eGRWjD5pN5fuBiRvpTxn-120" edge="1">
          <mxGeometry width="50" height="50" relative="1" as="geometry">
            <mxPoint x="1161" y="135" as="sourcePoint" />
            <mxPoint x="1211" y="85" as="targetPoint" />
          </mxGeometry>
        </mxCell>
        <mxCell id="eGRWjD5pN5fuBiRvpTxn-148" value="A_id" style="rhombus;whiteSpace=wrap;html=1;" parent="1" vertex="1">
          <mxGeometry x="750" y="480" width="80" height="60" as="geometry" />
        </mxCell>
        <mxCell id="eGRWjD5pN5fuBiRvpTxn-149" value="" style="endArrow=none;html=1;rounded=0;exitX=0.5;exitY=0;exitDx=0;exitDy=0;" parent="1" source="eGRWjD5pN5fuBiRvpTxn-148" edge="1">
          <mxGeometry width="50" height="50" relative="1" as="geometry">
            <mxPoint x="1081" y="265" as="sourcePoint" />
            <mxPoint x="870" y="420" as="targetPoint" />
          </mxGeometry>
        </mxCell>
        <mxCell id="2494E5i11pp2VTstkDPC-8" value="" style="endArrow=none;html=1;rounded=0;entryX=0;entryY=1;entryDx=0;entryDy=0;exitX=0.5;exitY=0;exitDx=0;exitDy=0;" parent="1" source="2494E5i11pp2VTstkDPC-10" target="eGRWjD5pN5fuBiRvpTxn-120" edge="1">
          <mxGeometry width="50" height="50" relative="1" as="geometry">
            <mxPoint x="731" y="275" as="sourcePoint" />
            <mxPoint x="931" y="25" as="targetPoint" />
          </mxGeometry>
        </mxCell>
        <mxCell id="2494E5i11pp2VTstkDPC-11" style="edgeStyle=orthogonalEdgeStyle;rounded=0;orthogonalLoop=1;jettySize=auto;html=1;entryX=0;entryY=0.5;entryDx=0;entryDy=0;exitX=1;exitY=0.5;exitDx=0;exitDy=0;" parent="1" source="2494E5i11pp2VTstkDPC-10" target="eGRWjD5pN5fuBiRvpTxn-54" edge="1">
          <mxGeometry relative="1" as="geometry">
            <mxPoint x="1110" y="650" as="targetPoint" />
            <Array as="points" />
          </mxGeometry>
        </mxCell>
        <mxCell id="2494E5i11pp2VTstkDPC-10" value="B_A" style="rhombus;whiteSpace=wrap;html=1;" parent="1" vertex="1">
          <mxGeometry x="825.5" y="451" width="80" height="60" as="geometry" />
        </mxCell>
        <mxCell id="ZJUqIeF_-J3eagiU4TCH-1" value="Közvélemény" style="ellipse;whiteSpace=wrap;html=1;" vertex="1" parent="1">
          <mxGeometry x="370" y="155" width="120" height="80" as="geometry" />
        </mxCell>
        <mxCell id="ZJUqIeF_-J3eagiU4TCH-2" value="K_id" style="rhombus;whiteSpace=wrap;html=1;" vertex="1" parent="1">
          <mxGeometry x="389" y="640" width="80" height="60" as="geometry" />
        </mxCell>
        <mxCell id="ZJUqIeF_-J3eagiU4TCH-3" value="kérdező" style="ellipse;whiteSpace=wrap;html=1;" vertex="1" parent="1">
          <mxGeometry x="330" y="256" width="80" height="60" as="geometry" />
        </mxCell>
        <mxCell id="ZJUqIeF_-J3eagiU4TCH-4" value="" style="rounded=0;whiteSpace=wrap;html=1;" vertex="1" parent="1">
          <mxGeometry x="345" y="340" width="50" height="70" as="geometry" />
        </mxCell>
        <mxCell id="ZJUqIeF_-J3eagiU4TCH-5" value="" style="endArrow=none;html=1;rounded=0;entryX=0.5;entryY=1;entryDx=0;entryDy=0;exitX=0.5;exitY=0;exitDx=0;exitDy=0;" edge="1" parent="1" source="ZJUqIeF_-J3eagiU4TCH-4" target="ZJUqIeF_-J3eagiU4TCH-3">
          <mxGeometry width="50" height="50" relative="1" as="geometry">
            <mxPoint x="229" y="394" as="sourcePoint" />
            <mxPoint x="279" y="344" as="targetPoint" />
          </mxGeometry>
        </mxCell>
        <mxCell id="ZJUqIeF_-J3eagiU4TCH-6" value="" style="endArrow=none;html=1;rounded=0;entryX=1;entryY=1;entryDx=0;entryDy=0;exitX=0.5;exitY=0;exitDx=0;exitDy=0;" edge="1" parent="1" source="ZJUqIeF_-J3eagiU4TCH-3" target="ZJUqIeF_-J3eagiU4TCH-1">
          <mxGeometry width="50" height="50" relative="1" as="geometry">
            <mxPoint x="230" y="410" as="sourcePoint" />
            <mxPoint x="280" y="360" as="targetPoint" />
          </mxGeometry>
        </mxCell>
        <mxCell id="ZJUqIeF_-J3eagiU4TCH-7" value="" style="endArrow=none;html=1;rounded=0;entryX=0.5;entryY=1;entryDx=0;entryDy=0;exitX=0.5;exitY=0;exitDx=0;exitDy=0;" edge="1" parent="1" source="ZJUqIeF_-J3eagiU4TCH-2" target="ZJUqIeF_-J3eagiU4TCH-1">
          <mxGeometry width="50" height="50" relative="1" as="geometry">
            <mxPoint x="230" y="410" as="sourcePoint" />
            <mxPoint x="280" y="360" as="targetPoint" />
          </mxGeometry>
        </mxCell>
        <mxCell id="ZJUqIeF_-J3eagiU4TCH-13" style="edgeStyle=orthogonalEdgeStyle;rounded=0;orthogonalLoop=1;jettySize=auto;html=1;exitX=1;exitY=0.5;exitDx=0;exitDy=0;entryX=0;entryY=0.5;entryDx=0;entryDy=0;" edge="1" parent="1" source="ZJUqIeF_-J3eagiU4TCH-9" target="eGRWjD5pN5fuBiRvpTxn-133">
          <mxGeometry relative="1" as="geometry" />
        </mxCell>
        <mxCell id="ZJUqIeF_-J3eagiU4TCH-9" value="K_Ny" style="rhombus;whiteSpace=wrap;html=1;" vertex="1" parent="1">
          <mxGeometry x="449" y="600" width="80" height="60" as="geometry" />
        </mxCell>
        <mxCell id="ZJUqIeF_-J3eagiU4TCH-14" style="edgeStyle=orthogonalEdgeStyle;rounded=0;orthogonalLoop=1;jettySize=auto;html=1;exitX=0;exitY=0.5;exitDx=0;exitDy=0;entryX=0.5;entryY=1;entryDx=0;entryDy=0;" edge="1" parent="1" source="ZJUqIeF_-J3eagiU4TCH-10" target="eGRWjD5pN5fuBiRvpTxn-72">
          <mxGeometry relative="1" as="geometry" />
        </mxCell>
        <mxCell id="ZJUqIeF_-J3eagiU4TCH-10" value="K_R" style="rhombus;whiteSpace=wrap;html=1;" vertex="1" parent="1">
          <mxGeometry x="329" y="600" width="80" height="60" as="geometry" />
        </mxCell>
        <mxCell id="ZJUqIeF_-J3eagiU4TCH-11" value="" style="endArrow=none;html=1;rounded=0;exitX=0.5;exitY=0;exitDx=0;exitDy=0;" edge="1" parent="1" source="ZJUqIeF_-J3eagiU4TCH-10">
          <mxGeometry width="50" height="50" relative="1" as="geometry">
            <mxPoint x="230" y="410" as="sourcePoint" />
            <mxPoint x="430" y="560" as="targetPoint" />
          </mxGeometry>
        </mxCell>
        <mxCell id="ZJUqIeF_-J3eagiU4TCH-12" value="" style="endArrow=none;html=1;rounded=0;exitX=0.5;exitY=0;exitDx=0;exitDy=0;" edge="1" parent="1" source="ZJUqIeF_-J3eagiU4TCH-9">
          <mxGeometry width="50" height="50" relative="1" as="geometry">
            <mxPoint x="390" y="610" as="sourcePoint" />
            <mxPoint x="430" y="560" as="targetPoint" />
          </mxGeometry>
        </mxCell>
        <mxCell id="ZJUqIeF_-J3eagiU4TCH-15" value="" style="endArrow=none;html=1;rounded=0;entryX=0.038;entryY=0.688;entryDx=0;entryDy=0;exitX=0.5;exitY=0;exitDx=0;exitDy=0;entryPerimeter=0;" edge="1" parent="1" source="ZJUqIeF_-J3eagiU4TCH-1" target="gpzR5CBWOuM9B5lPcLhK-56">
          <mxGeometry width="50" height="50" relative="1" as="geometry">
            <mxPoint x="510" y="490" as="sourcePoint" />
            <mxPoint x="560" y="440" as="targetPoint" />
          </mxGeometry>
        </mxCell>
        <mxCell id="ZJUqIeF_-J3eagiU4TCH-16" value="" style="endArrow=none;html=1;rounded=0;entryX=0.229;entryY=0.925;entryDx=0;entryDy=0;entryPerimeter=0;exitX=0.5;exitY=0;exitDx=0;exitDy=0;" edge="1" parent="1" source="eGRWjD5pN5fuBiRvpTxn-119" target="gpzR5CBWOuM9B5lPcLhK-56">
          <mxGeometry width="50" height="50" relative="1" as="geometry">
            <mxPoint x="670" y="490" as="sourcePoint" />
            <mxPoint x="720" y="440" as="targetPoint" />
          </mxGeometry>
        </mxCell>
        <mxCell id="ZJUqIeF_-J3eagiU4TCH-18" value="müszak" style="ellipse;whiteSpace=wrap;html=1;perimeterSpacing=0;" vertex="1" parent="1">
          <mxGeometry x="900" y="256" width="80" height="60" as="geometry" />
        </mxCell>
        <mxCell id="ZJUqIeF_-J3eagiU4TCH-19" value="müszak" style="ellipse;whiteSpace=wrap;html=1;perimeterSpacing=0;" vertex="1" parent="1">
          <mxGeometry x="905.5" y="261" width="71" height="50" as="geometry" />
        </mxCell>
        <mxCell id="ZJUqIeF_-J3eagiU4TCH-20" value="ital" style="ellipse;whiteSpace=wrap;html=1;" vertex="1" parent="1">
          <mxGeometry x="1173" y="263" width="66" height="46" as="geometry" />
        </mxCell>
      </root>
    </mxGraphModel>
  </diagram>
</mxfile>
